HIERARCHY
ROOT joint_Root
{
	OFFSET 0.0 0.0 0.0
	CHANNELS 6 Xposition Yposition Zposition Zrotation Xrotation Yrotation 
	JOINT Hips
	{
		OFFSET -17.1583 93.1646 452.98
		CHANNELS 6 Xposition Yposition Zposition Zrotation Xrotation Yrotation 
		JOINT Spine
		{
			OFFSET 15.7357 0.0 0.0
			CHANNELS 6 Xposition Yposition Zposition Zrotation Xrotation Yrotation 
			JOINT Chest
			{
				OFFSET 8.98455 -0.406207 0.0
				CHANNELS 6 Xposition Yposition Zposition Zrotation Xrotation Yrotation 
				JOINT Neck
				{
					OFFSET 16.3773 0.0 0.0
					CHANNELS 6 Xposition Yposition Zposition Zrotation Xrotation Yrotation 
					JOINT Head
					{
						OFFSET 6.45672 0.0 0.0
						CHANNELS 6 Xposition Yposition Zposition Zrotation Xrotation Yrotation 
						End Site
						{
							OFFSET 0.0 0.0 0.0
						}
					}
				}
				JOINT Shoulder_L
				{
					OFFSET 12.9942 -0.242716 4.98039
					CHANNELS 6 Xposition Yposition Zposition Zrotation Xrotation Yrotation 
					JOINT UpperArm_L
					{
						OFFSET 5.34809 0.0 0.0
						CHANNELS 6 Xposition Yposition Zposition Zrotation Xrotation Yrotation 
						JOINT LowerArm_L
						{
							OFFSET 24.3286 1.87007e-05 0.0
							CHANNELS 6 Xposition Yposition Zposition Zrotation Xrotation Yrotation 
							JOINT Hand_L
							{
								OFFSET 22.2916 0.0 0.0
								CHANNELS 6 Xposition Yposition Zposition Zrotation Xrotation Yrotation 
								End Site
								{
									OFFSET 0.0 0.0 0.0
								}
							}
						}
					}
				}
				JOINT Shoulder_R
				{
					OFFSET 12.9945 -0.242716 -4.98039
					CHANNELS 6 Xposition Yposition Zposition Zrotation Xrotation Yrotation 
					JOINT UpperArm_R
					{
						OFFSET -5.34813 0.0 0.0
						CHANNELS 6 Xposition Yposition Zposition Zrotation Xrotation Yrotation 
						JOINT LowerArm_R
						{
							OFFSET -24.3289 0.000322201 0.0
							CHANNELS 6 Xposition Yposition Zposition Zrotation Xrotation Yrotation 
							JOINT Hand_R
							{
								OFFSET -22.2915 -0.000108084 0.0
								CHANNELS 6 Xposition Yposition Zposition Zrotation Xrotation Yrotation 
								End Site
								{
									OFFSET 0.0 0.0 0.0
								}
							}
						}
					}
				}
			}
		}
		JOINT UpperLeg_L
		{
			OFFSET -2.19248 -6.46944 0.0
			CHANNELS 6 Xposition Yposition Zposition Zrotation Xrotation Yrotation 
			JOINT LowerLeg_L
			{
				OFFSET 39.0811 0.0 -1.23785e-05
				CHANNELS 6 Xposition Yposition Zposition Zrotation Xrotation Yrotation 
				JOINT Foot_L
				{
					OFFSET 40.9854 0.0 -1.26872e-05
					CHANNELS 6 Xposition Yposition Zposition Zrotation Xrotation Yrotation 
					JOINT Toes_L
					{
						OFFSET 11.7543 0.0 0.0
						CHANNELS 6 Xposition Yposition Zposition Zrotation Xrotation Yrotation 
						End Site
						{
							OFFSET 0.0 0.0 0.0
						}
					}
				}
			}
		}
		JOINT UpperLeg_R
		{
			OFFSET -2.19251 6.46944 0.0
			CHANNELS 6 Xposition Yposition Zposition Zrotation Xrotation Yrotation 
			JOINT LowerLeg_R
			{
				OFFSET -39.0811 -0.00228153 -0.0401928
				CHANNELS 6 Xposition Yposition Zposition Zrotation Xrotation Yrotation 
				JOINT Foot_R
				{
					OFFSET -40.9854 0.0 0.0
					CHANNELS 6 Xposition Yposition Zposition Zrotation Xrotation Yrotation 
					JOINT Toes_R
					{
						OFFSET -11.7543 0.0 0.0
						CHANNELS 6 Xposition Yposition Zposition Zrotation Xrotation Yrotation 
						End Site
						{
							OFFSET 0.0 0.0 0.0
						}
					}
				}
			}
		}
	}
}
MOTION
Frames:	8
Frame Time:	0.0333333
0.000000 0.000000 0.000000 0.000000 0.000000 -0.000000 -4.363590 92.034200 -1.369890 82.893900 -1.406050 1.348580 15.735700 0.000005 -0.000001 53.555200 87.462800 -49.480700 8.984550 -0.406207 -0.000000 -3.552500 -3.414730 8.047650 16.377300 -0.000001 -0.000001 8.424800 0.687385 8.372490 6.456720 -0.000001 -0.000000 8.189280 5.183740 12.979900 12.994200 -0.242716 4.980390 -91.688200 5.513530 -72.946700 5.348090 -0.000007 -0.000001 -76.701200 34.463600 2.893990 24.328600 0.000019 0.000005 12.910800 26.966000 -26.816800 22.291600 -0.000001 0.000005 -3.339430 4.943330 8.502060 12.994500 -0.242716 -4.980390 87.922400 5.284840 -68.502600 -5.348130 -0.000001 -0.000004 -69.942200 -3.267370 -15.023100 -24.328900 0.000322 -0.000009 17.943400 -21.441100 -138.462000 -22.291500 -0.000108 -0.000004 55.376300 5.647520 -14.783100 -2.192480 -6.469440 -0.000000 -170.529000 5.168320 -7.058300 39.081100 -0.000007 -0.000012 0.373747 -0.680362 28.782400 40.985400 -0.000006 -0.000013 -1.886300 2.801770 -76.367300 11.754300 -0.000000 0.000003 0.000699 0.154879 -10.295500 -2.192510 6.469440 -0.000001 -168.245000 6.661010 -179.163000 -39.081100 -0.002282 -0.040193 0.054621 -0.200949 14.318200 -40.985400 0.000008 0.000006 3.280730 3.019750 -69.398200 -11.754300 -0.000006 -0.000006 -0.010506 0.275051 -5.397760
0.000000 0.000000 0.000000 0.000000 0.000000 -0.000000 -4.313900 92.042000 -1.359570 82.907700 -1.349390 1.362710 15.735700 0.000005 -0.000001 53.717600 87.461500 -49.661400 8.984550 -0.406207 -0.000000 -3.542920 -3.402580 8.011690 16.377300 -0.000001 -0.000001 8.414780 0.663068 8.335290 6.456720 -0.000001 -0.000000 8.158410 5.122890 12.844700 12.994200 -0.242716 4.980390 -91.697800 5.541280 -72.936200 5.348090 -0.000007 -0.000001 -76.719900 34.429200 2.900270 24.328600 0.000019 0.000005 12.821400 26.848300 -26.744500 22.291600 -0.000001 0.000005 -3.360020 4.945720 8.452980 12.994500 -0.242716 -4.980390 87.926100 5.278210 -68.513300 -5.348130 -0.000001 -0.000004 -69.920900 -3.394060 -15.006800 -24.328900 0.000322 -0.000009 17.821400 -21.309500 -138.503000 -22.291500 -0.000108 -0.000004 55.353300 5.647660 -14.797700 -2.192480 -6.469440 -0.000000 -170.571000 5.142670 -7.030210 39.081100 -0.000007 -0.000012 0.374776 -0.683951 28.721700 40.985400 -0.000006 -0.000013 -1.771700 2.876330 -76.266500 11.754300 -0.000000 0.000003 0.000965 0.149391 -10.518300 -2.192510 6.469440 -0.000001 -168.287000 6.602780 -179.153000 -39.081100 -0.002282 -0.040193 0.053581 -0.197004 14.309100 -40.985400 0.000008 0.000006 3.156810 2.913610 -69.345700 -11.754300 -0.000006 -0.000006 -0.010076 0.271869 -5.527930
0.000000 0.000000 0.000000 0.000000 0.000000 -0.000000 -4.257330 92.054700 -1.357200 82.952500 -1.304340 1.368660 15.735700 0.000005 -0.000001 53.892000 87.459000 -49.856100 8.984550 -0.406207 -0.000000 -3.530930 -3.390610 7.971800 16.377300 -0.000001 -0.000001 8.428010 0.655930 8.233670 6.456720 -0.000001 -0.000000 8.068950 5.068060 12.764300 12.994200 -0.242716 4.980390 -91.706200 5.564680 -72.924100 5.348090 -0.000007 -0.000001 -76.748500 34.432100 2.907070 24.328600 0.000019 0.000005 12.844800 26.867100 -26.773000 22.291600 -0.000001 0.000005 -3.421780 4.943980 8.488740 12.994500 -0.242716 -4.980390 87.928100 5.274450 -68.518400 -5.348130 -0.000001 -0.000004 -69.951900 -3.537520 -15.032100 -24.328900 0.000322 -0.000009 17.714300 -21.192800 -138.536000 -22.291500 -0.000108 -0.000004 55.355400 5.648090 -14.839700 -2.192480 -6.469440 -0.000000 -170.642000 5.122130 -7.006210 39.081100 -0.000007 -0.000012 0.367911 -0.673089 28.661900 40.985400 -0.000006 -0.000013 -1.817910 2.934750 -76.236100 11.754300 -0.000000 0.000003 0.000862 0.151566 -10.430000 -2.192510 6.469440 -0.000001 -168.376000 6.618050 -179.139000 -39.081100 -0.002282 -0.040193 0.052518 -0.193117 14.289300 -40.985400 0.000008 0.000006 3.088950 2.897560 -69.341700 -11.754300 -0.000006 -0.000006 -0.010332 0.273772 -5.450060
0.000000 0.000000 0.000000 0.000000 0.000000 -0.000000 -4.199430 92.061800 -1.360420 82.990400 -1.218440 1.364860 15.735700 0.000005 -0.000001 53.967300 87.467800 -49.942100 8.984550 -0.406207 -0.000000 -3.542090 -3.374250 7.950470 16.377300 -0.000001 -0.000001 8.401660 0.637499 8.204420 6.456720 -0.000001 -0.000000 8.020740 5.006670 12.582300 12.994200 -0.242716 4.980390 -91.724100 5.622730 -72.921900 5.348090 -0.000007 -0.000001 -76.740900 34.451200 2.916630 24.328600 0.000019 0.000005 12.787500 26.746900 -26.762200 22.291600 -0.000001 0.000005 -3.398990 4.945020 8.467350 12.994500 -0.242716 -4.980390 87.926400 5.266260 -68.471700 -5.348130 -0.000001 -0.000004 -70.014200 -3.702310 -15.043200 -24.328900 0.000322 -0.000009 17.575400 -21.045800 -138.586000 -22.291500 -0.000108 -0.000004 55.317600 5.648700 -14.892700 -2.192480 -6.469440 -0.000000 -170.724000 5.084210 -7.009340 39.081100 -0.000007 -0.000012 0.374035 -0.685705 28.612200 40.985400 -0.000006 -0.000013 -1.638020 2.996880 -76.238700 11.754300 -0.000000 0.000003 0.000765 0.153571 -10.348600 -2.192510 6.469440 -0.000001 -168.437000 6.597320 -179.151000 -39.081100 -0.002282 -0.040193 0.053922 -0.198679 14.285800 -40.985400 0.000008 0.000006 3.127780 2.846110 -69.381500 -11.754300 -0.000006 -0.000006 -0.010437 0.274540 -5.418640
0.000000 0.000000 0.000000 0.000000 0.000000 -0.000000 -4.141730 92.078400 -1.372030 83.037500 -1.172770 1.322500 15.735700 0.000005 -0.000001 53.871900 87.481500 -49.866500 8.984550 -0.406207 -0.000000 -3.570350 -3.363870 7.910450 16.377300 -0.000001 -0.000001 8.367200 0.619205 8.139110 6.456720 -0.000001 -0.000000 8.017620 4.977920 12.527500 12.994200 -0.242716 4.980390 -91.722300 5.615860 -72.919600 5.348090 -0.000007 -0.000001 -76.779300 34.408600 2.899430 24.328600 0.000019 0.000005 12.807000 26.762700 -26.786000 22.291600 -0.000001 0.000005 -3.498250 4.940930 8.551150 12.994500 -0.242716 -4.980390 87.918700 5.288810 -68.482300 -5.348130 -0.000001 -0.000004 -70.057700 -3.800950 -15.038600 -24.328900 0.000322 -0.000009 17.667000 -21.107000 -138.508000 -22.291500 -0.000108 -0.000004 55.381600 5.646270 -14.676400 -2.192480 -6.469440 -0.000000 -170.798000 5.064520 -7.026970 39.081100 -0.000007 -0.000012 0.368022 -0.677525 28.511000 40.985400 -0.000006 -0.000013 -1.602800 3.034070 -76.124500 11.754300 -0.000000 0.000003 0.000888 0.151038 -10.451400 -2.192510 6.469440 -0.000001 -168.530000 6.621070 -179.211000 -39.081100 -0.002282 -0.040193 0.052744 -0.194085 14.283600 -40.985400 0.000008 0.000006 2.957360 2.821600 -69.328500 -11.754300 -0.000006 -0.000006 -0.010010 0.271380 -5.547940
0.000000 0.000000 0.000000 0.000000 0.000000 -0.000000 -4.085110 92.092600 -1.387290 83.081600 -1.074150 1.306560 15.735700 0.000005 -0.000001 53.570300 87.484100 -49.583600 8.984550 -0.406207 -0.000000 -3.590290 -3.381020 7.872040 16.377300 -0.000001 -0.000001 8.411910 0.619982 8.074270 6.456720 -0.000001 -0.000000 7.956070 4.919880 12.477300 12.994200 -0.242716 4.980390 -91.726200 5.630560 -72.925300 5.348090 -0.000007 -0.000001 -76.780900 34.362000 2.893350 24.328600 0.000019 0.000005 12.811100 26.734600 -26.816000 22.291600 -0.000001 0.000005 -3.451960 4.939400 8.582500 12.994500 -0.242716 -4.980390 87.922100 5.284440 -68.498200 -5.348130 -0.000001 -0.000004 -70.162800 -3.934410 -14.990400 -24.328900 0.000322 -0.000009 17.507000 -20.911100 -138.530000 -22.291500 -0.000108 -0.000004 55.315800 5.648430 -14.867800 -2.192480 -6.469440 -0.000000 -170.866000 5.093600 -7.048980 39.081100 -0.000007 -0.000012 0.365641 -0.674764 28.453200 40.985400 -0.000006 -0.000013 -1.632690 3.121250 -76.083300 11.754300 -0.000000 0.000003 0.000782 0.153228 -10.362600 -2.192510 6.469440 -0.000001 -168.577000 6.541830 -179.215000 -39.081100 -0.002282 -0.040193 0.053024 -0.196241 14.209800 -40.985400 0.000008 0.000006 3.019510 2.653050 -69.334100 -11.754300 -0.000006 -0.000006 -0.010437 0.274543 -5.418540
0.000000 0.000000 0.000000 0.000000 0.000000 -0.000000 -4.031720 92.099000 -1.399400 83.092500 -1.027620 1.311490 15.735700 0.000005 -0.000001 53.825400 87.483700 -49.846400 8.984550 -0.406207 -0.000000 -3.577300 -3.362230 7.857630 16.377300 -0.000001 -0.000001 8.364840 0.609858 8.065060 6.456720 -0.000001 -0.000000 7.951040 4.901090 12.420900 12.994200 -0.242716 4.980390 -91.737400 5.658610 -72.900800 5.348090 -0.000007 -0.000001 -76.711300 34.406800 2.822810 24.328600 0.000019 0.000005 12.780600 26.684200 -26.799400 22.291600 -0.000001 0.000005 -3.379360 4.942290 8.523460 12.994500 -0.242716 -4.980390 87.916300 5.295330 -68.484000 -5.348130 -0.000001 -0.000004 -70.188600 -4.001850 -14.982300 -24.328900 0.000322 -0.000009 17.532000 -20.914700 -138.491000 -22.291500 -0.000108 -0.000004 55.297200 5.645980 -14.643200 -2.192480 -6.469440 -0.000000 -170.920000 5.086110 -7.050460 39.081100 -0.000007 -0.000012 0.367581 -0.679371 28.416900 40.985400 -0.000006 -0.000013 -1.500980 3.122110 -76.022800 11.754300 -0.000000 0.000003 0.000908 0.150610 -10.468800 -2.192510 6.469440 -0.000001 -168.621000 6.550230 -179.235000 -39.081100 -0.002282 -0.040193 0.053154 -0.196509 14.226700 -40.985400 0.000008 0.000006 2.956460 2.624350 -69.325900 -11.754300 -0.000006 -0.000006 -0.010581 0.275596 -5.375460
0.000000 0.000000 0.000000 0.000000 0.000000 -0.000000 -3.982380 92.107200 -1.420980 83.094900 -0.918595 1.324810 15.735700 0.000005 -0.000001 53.793200 87.480000 -49.815900 8.984550 -0.406207 -0.000000 -3.572860 -3.368550 7.853970 16.377300 -0.000001 -0.000001 8.374680 0.632635 8.029080 6.456720 -0.000001 -0.000000 7.895570 4.865830 12.431400 12.994200 -0.242716 4.980390 -91.737700 5.659710 -72.900900 5.348090 -0.000007 -0.000001 -76.692100 34.363700 2.771910 24.328600 0.000019 0.000005 12.828800 26.744400 -26.841100 22.291600 -0.000001 0.000005 -3.454930 4.942470 8.519690 12.994500 -0.242716 -4.980390 87.924900 5.269920 -68.471800 -5.348130 -0.000001 -0.000004 -70.222600 -4.095560 -14.959100 -24.328900 0.000322 -0.000009 17.435600 -20.750500 -138.444000 -22.291500 -0.000108 -0.000004 55.220200 5.645990 -14.644300 -2.192480 -6.469440 -0.000000 -170.956000 5.138040 -7.073010 39.081100 -0.000007 -0.000012 0.369571 -0.683193 28.411900 40.985400 -0.000006 -0.000013 -1.463140 3.143590 -76.043000 11.754300 -0.000000 0.000003 0.000830 0.152238 -10.402700 -2.192510 6.469440 -0.000001 -168.652000 6.594400 -179.230000 -39.081100 -0.002282 -0.040193 0.052971 -0.196294 14.191800 -40.985400 0.000008 0.000006 2.956350 2.551070 -69.331300 -11.754300 -0.000006 -0.000006 -0.010285 0.273419 -5.464520
